<svg xmlns="http://www.w3.org/2000/svg" viewBox="0 0 512 512">
  <defs>
    <linearGradient id="bg" x1="64" y1="32" x2="448" y2="480" gradientUnits="userSpaceOnUse">
      <stop offset="0" stop-color="#ef4444" />
      <stop offset="1" stop-color="#b91c1c" />
    </linearGradient>
    <filter id="shadow" x="-20%" y="-20%" width="140%" height="140%">
      <feDropShadow dx="0" dy="18" stdDeviation="18" flood-color="#7f1d1d" flood-opacity="0.25" />
    </filter>
  </defs>
  <rect width="512" height="512" rx="112" fill="#f8fafc" />
  <rect x="54" y="54" width="404" height="404" rx="94" fill="url(#bg)" filter="url(#shadow)" />
  <path d="M152 112h150l86 86v202a24 24 0 0 1-24 24H152a24 24 0 0 1-24-24V136a24 24 0 0 1 24-24z" fill="#ffffff" />
  <path d="M302 112v74a12 12 0 0 0 12 12h74z" fill="#fecaca" />
  <rect x="116" y="244" width="280" height="82" rx="18" fill="#dc2626" />
  <text x="256" y="301" text-anchor="middle" font-family="Arial, Helvetica, sans-serif" font-size="58" font-weight="800" fill="#ffffff">PDF</text>
  <path d="M178 356h156" stroke="#dc2626" stroke-width="24" stroke-linecap="round" />
  <path d="M178 392h102" stroke="#dc2626" stroke-width="24" stroke-linecap="round" />
</svg>
